<?xml version="1.0" encoding="UTF-8"?>
<svg id="Layer_1" data-name="Layer 1" xmlns="http://www.w3.org/2000/svg" viewBox="0 0 833.385827 588.472441">
  <defs>
    <style>
      .cls-1 {
        fill: #fff;
      }

      .cls-2 {
        fill: none;
        stroke: #fff;
        stroke-miterlimit: 10;
        stroke-width: 10px;
      }
    </style>
  </defs>
  <g>
    <path class="cls-1" d="M281.353721,472.082504c-54.962782-5.862081-133.143959-48.999935-162.569955-137.553222-26.648801-80.195664-.043342-162.724271,51.043833-210.953149,1.921543-1.814033,5.034929-1.362194,6.355788,.926556l134.281083,232.678526c1.555614,2.695525,5.490057,2.703072,7.061754-.019863L451.820797,124.498566c1.322801-2.291727,4.440587-2.738209,6.362399-.919294,52.631819,49.813838,77.078154,133.258976,50.76768,211.662394-28.105734,83.753205-100.654247,127.001388-154.583202,135.763842-3.370181,.547592-5.893504-3.084039-4.192832-6.04473,.012941-.02253,.025894-.045052,.03886-.067567,13.02138-22.612972,25.960473-45.274618,39.198629-67.760138,2.431315-4.129684,5.734479-7.660648,9.589229-10.507837,42.077343-31.079097,65.089307-83.829015,58.197711-134.116475-.530696-3.87245-5.645897-4.89668-7.59991-1.511515-44.230339,76.625393-87.857792,152.206393-132.061911,228.786411-1.571675,2.722799-5.50854,2.724842-7.080124,.001991-44.120109-76.440352-87.776078-152.076554-132.167821-228.987536-1.941457-3.363675-7.042651-2.377154-7.597193,1.466809-1.63139,11.308441-1.479386,21.922849-.248756,32.506564,5.058217,43.502038,25.65503,77.979149,61.141402,103.625909,1.912647,1.382321,3.80085,3.1447,4.97163,5.154668,14.694219,25.226731,29.257809,50.529593,43.829827,75.827373,.442635,.768407,.614093,1.693046,.967309,2.703069Z"/>
    <path class="cls-1" d="M192.533066,102.672191c14.959153-8.344905,29.738691-16.589613,45.022302-25.11552,1.948734-1.087094,4.424463-.405608,5.540557,1.526664,22.782359,39.442633,44.826273,77.606813,67.35658,116.613053,1.571894,2.721386,5.508806,2.720961,7.080729-.000408,22.387885-38.758713,44.418069-76.898159,67.299154-116.510742,1.112203-1.925488,3.572659-2.610685,5.519861-1.53695,15.112763,8.33355,29.933117,16.505861,45.146222,24.894737,1.992649,1.098795,2.709883,3.625823,1.585865,5.604354-40.104617,70.593398-79.449906,139.850206-119.527919,210.396765-1.565208,2.755127-5.544275,2.756605-7.109604,.001548-39.93328-70.284569-79.253471-139.490084-119.475362-210.282633-1.120263-1.971719-.418821-4.486089,1.561615-5.590868Z"/>
  </g>
  <circle class="cls-2" cx="314.370079" cy="270" r="227.480315"/>
</svg>