<svg id="Layer_1" data-name="Layer 1" xmlns="http://www.w3.org/2000/svg" viewBox="0 0 75.69 75.68"><defs><style>.cls-1{font-size:4.62px;fill:#fff;font-family:Montserrat-ExtraBold, Montserrat;font-weight:800;}</style></defs><text class="cls-1" transform="matrix(0.81, -0.58, 0.58, 0.81, 20.23, 15.72)">v</text><text class="cls-1" transform="translate(22.44 14.12) rotate(-30.01)">e</text><text class="cls-1" transform="translate(24.95 12.66) rotate(-24.08)">e</text><text class="cls-1" transform="translate(27.59 11.5) rotate(-19.14)">r</text><text class="cls-1" transform="translate(29.45 10.82) rotate(-13.98)">u</text><text class="cls-1" transform="translate(32.5 10.1) rotate(-9.59)"> </text><text class="cls-1" transform="translate(33.79 9.88) rotate(-6.95)"> </text><text class="cls-1" transform="matrix(1, -0.07, 0.07, 1, 35.1, 9.72)"> </text><text class="cls-1" transform="matrix(1, -0.02, 0.02, 1, 36.39, 9.62)">•</text><text class="cls-1" transform="translate(38.1 9.58) rotate(1.83)"> </text><text class="cls-1" transform="matrix(1, 0.08, -0.08, 1, 39.41, 9.62)"> </text><text class="cls-1" transform="matrix(0.99, 0.13, -0.13, 0.99, 40.73, 9.73)"> </text><text class="cls-1" transform="translate(42.01 9.86) rotate(11.4)">v</text><text class="cls-1" transform="translate(44.67 10.39) rotate(17.03)">e</text><text class="cls-1" transform="matrix(0.92, 0.39, -0.39, 0.92, 47.42, 11.23)">e</text><text class="cls-1" transform="translate(50.11 12.38) rotate(27.84)">r</text><text class="cls-1" transform="translate(51.86 13.27) rotate(32.96)">u</text><text class="cls-1" transform="translate(54.47 15) rotate(37.41)"> </text><text class="cls-1" transform="matrix(0.77, 0.64, -0.64, 0.77, 55.51, 15.8)"> </text><text class="cls-1" transform="matrix(0.73, 0.68, -0.68, 0.73, 56.52, 16.64)"> </text><text class="cls-1" transform="matrix(0.68, 0.73, -0.73, 0.68, 57.48, 17.49)">v</text><text class="cls-1" transform="translate(59.35 19.47) rotate(52.48)">e</text><text class="cls-1" transform="matrix(0.52, 0.85, -0.85, 0.52, 61.11, 21.75)">e</text><text class="cls-1" transform="translate(62.61 24.22) rotate(63.33)">r</text><text class="cls-1" transform="matrix(0.37, 0.93, -0.93, 0.37, 63.53, 25.99)">u</text><text class="cls-1" transform="matrix(0.29, 0.96, -0.96, 0.29, 64.64, 28.91)"> </text><text class="cls-1" transform="translate(65.02 30.16) rotate(75.65)"> </text><text class="cls-1" transform="translate(65.34 31.43) rotate(77.72)"> </text><text class="cls-1" transform="matrix(0.15, 0.99, -0.99, 0.15, 65.62, 32.71)">•</text><text class="cls-1" transform="translate(65.88 34.41) rotate(84.36)"> </text><text class="cls-1" transform="matrix(0.05, 1, -1, 0.05, 66.01, 35.72)"> </text><text class="cls-1" transform="matrix(0.01, 1, -1, 0.01, 66.07, 37.02)"> </text><text class="cls-1" transform="matrix(-0.07, 1, -1, -0.07, 66.11, 38.32)">v</text><text class="cls-1" transform="translate(65.94 41.04) rotate(99.55)">e</text><text class="cls-1" transform="translate(65.46 43.88) rotate(105.42)">e</text><text class="cls-1" transform="translate(64.68 46.66) rotate(110.36)">r</text><text class="cls-1" transform="translate(64.02 48.52) rotate(115.52)">u</text><text class="cls-1" transform="translate(62.64 51.33) rotate(119.98)"> </text><text class="cls-1" transform="matrix(-0.54, 0.84, -0.84, -0.54, 61.98, 52.47)"> </text><text class="cls-1" transform="translate(61.28 53.58) rotate(125.27)"> </text><text class="cls-1" transform="matrix(-0.62, 0.78, -0.78, -0.62, 60.52, 54.65)">•</text><text class="cls-1" transform="translate(59.46 56) rotate(131.39)"> </text><text class="cls-1" transform="translate(58.6 56.97) rotate(134)"> </text><text class="cls-1" transform="translate(57.69 57.92) rotate(136.67)"> </text><text class="cls-1" transform="matrix(-0.78, 0.63, -0.63, -0.78, 56.77, 58.82)">v</text><text class="cls-1" transform="translate(54.65 60.56) rotate(146.51)">e</text><text class="cls-1" transform="translate(52.25 62.15) rotate(152.39)">e</text><text class="cls-1" transform="translate(49.69 63.47) rotate(157.35)">r</text><text class="cls-1" transform="matrix(-0.95, 0.3, -0.3, -0.95, 47.86, 64.27)">u</text><text class="cls-1" transform="matrix(-0.97, 0.22, -0.22, -0.97, 44.86, 65.17)"> </text><text class="cls-1" transform="matrix(-0.98, 0.18, -0.18, -0.98, 43.59, 65.47)"> </text><text class="cls-1" transform="translate(42.3 65.71) rotate(172.23)"> </text><text class="cls-1" transform="matrix(-1, 0.08, -0.08, -1, 41.02, 65.89)">•</text><text class="cls-1" transform="translate(39.31 66.02) rotate(178.33)"> </text><text class="cls-1" transform="translate(37.99 66.06) rotate(-178.98)"> </text><text class="cls-1" transform="translate(36.68 66.04) rotate(-176.3)"> </text><text class="cls-1" transform="matrix(-0.99, -0.14, 0.14, -0.99, 35.4, 65.99)">v</text><text class="cls-1" transform="translate(32.71 65.63) rotate(-166.5)">e</text><text class="cls-1" transform="translate(29.89 64.95) rotate(-160.59)">e</text><text class="cls-1" transform="matrix(-0.91, -0.41, 0.41, -0.91, 27.17, 63.98)">r</text><text class="cls-1" transform="matrix(-0.87, -0.49, 0.49, -0.87, 25.35, 63.18)">u</text><text class="cls-1" transform="matrix(-0.83, -0.56, 0.56, -0.83, 22.64, 61.62)"> </text><text class="cls-1" transform="translate(21.55 60.88) rotate(-143.41)"> </text><text class="cls-1" transform="matrix(-0.77, -0.63, 0.63, -0.77, 20.51, 60.11)"> </text><text class="cls-1" transform="matrix(-0.74, -0.67, 0.67, -0.74, 19.49, 59.29)">•</text><text class="cls-1" transform="matrix(-0.7, -0.71, 0.71, -0.7, 18.21, 58.11)"> </text><text class="cls-1" transform="matrix(-0.67, -0.74, 0.74, -0.67, 17.29, 57.19)"> </text><text class="cls-1" transform="matrix(-0.61, -0.79, 0.79, -0.61, 16.41, 56.25)">v</text><text class="cls-1" transform="translate(14.73 54.11) rotate(-122.17)">e</text><text class="cls-1" transform="translate(13.19 51.67) rotate(-116.27)">e</text><text class="cls-1" transform="matrix(-0.36, -0.93, 0.93, -0.36, 11.93, 49.06)">r</text><text class="cls-1" transform="translate(11.18 47.25) rotate(-106.16)">u</text><text class="cls-1" transform="translate(10.35 44.22) rotate(-102.28)"> </text><text class="cls-1" transform="translate(10.07 42.93) rotate(-99.08)"> </text><text class="cls-1" transform="translate(9.87 41.64) rotate(-96.46)"> </text><text class="cls-1" transform="translate(9.72 40.35) rotate(-93.84)"> </text><text class="cls-1" transform="matrix(-0.01, -1, 1, -0.01, 9.63, 39.04)">•</text><text class="cls-1" transform="translate(9.61 37.31) rotate(-87.64)"> </text><text class="cls-1" transform="translate(9.66 36) rotate(-84.96)"> </text><text class="cls-1" transform="translate(9.74 34.73) rotate(-80.8)">v</text><text class="cls-1" transform="matrix(0.26, -0.97, 0.97, 0.26, 10.17, 32.02)">e</text><text class="cls-1" transform="translate(10.9 29.25) rotate(-69.29)">e</text><text class="cls-1" transform="matrix(0.43, -0.9, 0.9, 0.43, 11.96, 26.53)">r</text><text class="cls-1" transform="translate(12.78 24.74) rotate(-59.17)">u</text><text class="cls-1" transform="translate(14.41 22.07) rotate(-54.73)"> </text><text class="cls-1" transform="matrix(0.61, -0.79, 0.79, 0.61, 15.17, 21)"> </text><text class="cls-1" transform="translate(15.98 19.96) rotate(-49.43)"> </text><text class="cls-1" transform="translate(16.81 18.97) rotate(-46.39)">•</text><text class="cls-1" transform="matrix(0.73, -0.69, 0.69, 0.73, 18, 17.73)"> </text><text class="cls-1" transform="translate(18.96 16.82) rotate(-40.64)"> </text></svg>