<svg id="Layer_1" data-name="Layer 1" xmlns="http://www.w3.org/2000/svg" viewBox="0 0 379.73 87.57"><path d="M245.83,279.33c.12.16.3.14.46.14a1.93,1.93,0,0,1,1,.29,1.19,1.19,0,0,1,.76,1.11c-.12,3.21.15,6.41.15,9.61q0,33.78,0,67.55c0,2.12-.09,4.25-.12,6.37a2.63,2.63,0,0,1-2.57,2.49,3.6,3.6,0,0,1-1.8-.4,1.49,1.49,0,0,1-.82-1.32c-.29-4.35-.12-8.71-.12-13.06q0-34.32,0-68.62a8.65,8.65,0,0,1,.23-2,2.53,2.53,0,0,1,2.06-2.06c.06,0,.11-.08.17-.12Z" transform="translate(106.98 -279.33)" style="fill:#f6f2d9"/><path d="M34.51,279.33a3.35,3.35,0,0,0,1.08.31,1.48,1.48,0,0,1,1.07,1.44,5.42,5.42,0,0,1,0,.57v81.78a4.55,4.55,0,0,1-.53,2.34,2.1,2.1,0,0,1-1.74,1.11,5.09,5.09,0,0,1-2-.3,1.42,1.42,0,0,1-1-1.34,5.42,5.42,0,0,1,0-.57V282.82a4.64,4.64,0,0,1,.37-1.95,2.28,2.28,0,0,1,1.77-1.42c.06,0,.11-.08.16-.12Z" transform="translate(106.98 -279.33)" style="fill:#f6f2d9"/><path d="M-45.1,279.33c.42.23.91.18,1.35.41a1.32,1.32,0,0,1,.81,1.16c0,.16,0,.33,0,.5v82.29a5.58,5.58,0,0,1-.14,1.35,2.47,2.47,0,0,1-2.36,1.85,4.64,4.64,0,0,1-1.61-.3,1.52,1.52,0,0,1-1.11-1.4c-.08-.81-.1-1.62-.1-2.42q0-39.9,0-79.78a5.19,5.19,0,0,1,.39-2A2.23,2.23,0,0,1-46,279.45c.06,0,.12-.08.17-.12Z" transform="translate(106.98 -279.33)" style="fill:#f6f2d9"/><path d="M114.12,279.33c.09.14.24.12.38.15,1.38.29,1.61.69,1.77,1.94a5.61,5.61,0,0,1,0,.58q0,40.53,0,81.07a8,8,0,0,1-.2,1.7c-.42,1.89-2.06,2.33-3.54,2a2.42,2.42,0,0,1-.92-.39,1.27,1.27,0,0,1-.67-1.19V282.5a3.14,3.14,0,0,1,1-2.56,8.21,8.21,0,0,1,1.27-.61Z" transform="translate(106.98 -279.33)" style="fill:#f6f2d9"/><path d="M139,279.33c.12.16.29.14.46.14a2.23,2.23,0,0,1,1,.28,1.41,1.41,0,0,1,.76,1.41q0,20.7,0,41.4V364a3,3,0,0,1-.39,1.57,2.74,2.74,0,0,1-3.18,1.19,2,2,0,0,1-1.1-.48,1.82,1.82,0,0,1-.53-1.13,64.75,64.75,0,0,1-.12-7.1q0-37.3,0-74.62a8.65,8.65,0,0,1,.21-1.84,2.49,2.49,0,0,1,2.08-2.18c.06,0,.11-.08.17-.12Z" transform="translate(106.98 -279.33)" style="fill:#f6f2d9"/><path d="M272.75,364.72a.42.42,0,0,0-.14.24,2.47,2.47,0,0,1-3.05,1.88,2.76,2.76,0,0,1-1-.38,1.66,1.66,0,0,1-.74-1.22,24,24,0,0,1-.1-2.93q0-39.57,0-79.14a7.19,7.19,0,0,1,.4-2.52,1.74,1.74,0,0,1,1.51-1.16,5.48,5.48,0,0,1,2.13.16,1.33,1.33,0,0,1,1,.83Z" transform="translate(106.98 -279.33)" style="fill:#f6f2d9"/><path d="M16.37,322.88q0,20.52,0,41a14.51,14.51,0,0,1-.18,1.63,1,1,0,0,1-1.17,1q-2.62,0-5.25,0a1.33,1.33,0,0,1-1.19-1.24,32.6,32.6,0,0,1-.14-4.08q0-39.12,0-78.26c0-.77.13-1.53.19-2.28s.11-.8.93-1a17.19,17.19,0,0,1,3.36-.13,9,9,0,0,1,2.43.12,1.07,1.07,0,0,1,.89.9,5.44,5.44,0,0,1,.13,1.2Z" transform="translate(106.98 -279.33)" style="fill:#f6f2d9"/><path d="M97.27,323.1V281.49c0-.21,0-.43,0-.64a1.17,1.17,0,0,1,1-1.11,7.89,7.89,0,0,1,2-.12c.91,0,1.82,0,2.73,0a3.44,3.44,0,0,1,.78.08c1,.2,1.09.31,1.24,1.53a4.13,4.13,0,0,1,0,.5v82.43a5.52,5.52,0,0,1-.12,1.21,1.39,1.39,0,0,1-1.5,1.22c-.84,0-1.68-.07-2.51,0a17.91,17.91,0,0,1-2.2,0,1.27,1.27,0,0,1-1.45-1.44c0-1.78,0-3.55,0-5.32Z" transform="translate(106.98 -279.33)" style="fill:#f6f2d9"/><path d="M126.78,323.1V281.49a2.55,2.55,0,0,1,.16-1.13,1,1,0,0,1,.74-.61,8.18,8.18,0,0,1,1.49-.14c1.13,0,2.26,0,3.38,0a4.05,4.05,0,0,1,.78.09c1,.21,1,.4,1.22,1.48a2.77,2.77,0,0,1,0,.5v82.73a4.86,4.86,0,0,1-.16,1.27,1.1,1.1,0,0,1-1.14.91c-1.73,0-3.46,0-5.18,0a1.3,1.3,0,0,1-1.29-1.29c0-.22,0-.43,0-.65Z" transform="translate(106.98 -279.33)" style="fill:#f6f2d9"/><path d="M216.32,323.17v41.34a3.63,3.63,0,0,1-.12,1.13,1.17,1.17,0,0,1-1.17.95c-1.68,0-3.36,0-5,0a1.33,1.33,0,0,1-1.44-1.44c0-.17,0-.33,0-.5V281.69a6.21,6.21,0,0,1,.12-1.14.87.87,0,0,1,.75-.76,7.36,7.36,0,0,1,1.42-.19c1.07,0,2.15,0,3.23,0a6.72,6.72,0,0,1,1.42.16.83.83,0,0,1,.68.66,4.47,4.47,0,0,1,.16,1.27Q216.32,302.43,216.32,323.17Z" transform="translate(106.98 -279.33)" style="fill:#f6f2d9"/><path d="M55,323.08V364.7a2.58,2.58,0,0,1-.11,1,1.22,1.22,0,0,1-1.16.9c-1.75,0-3.5,0-5.25,0a1,1,0,0,1-1.08-.87,8.2,8.2,0,0,1-.18-1.49q0-38,0-76.05v-6.11a8.43,8.43,0,0,1,.12-1.5.82.82,0,0,1,.67-.74,5.43,5.43,0,0,1,1.34-.21c1.08,0,2.16,0,3.24,0a5.66,5.66,0,0,1,1.42.14,1.16,1.16,0,0,1,1,1.06c0,.22,0,.43,0,.65Z" transform="translate(106.98 -279.33)" style="fill:#f6f2d9"/><path d="M-82.38,322.89v-41.4c0-.22,0-.44,0-.65a1.16,1.16,0,0,1,1.1-1.09,19.73,19.73,0,0,1,3.07-.14,14.14,14.14,0,0,1,1.85.19,1.82,1.82,0,0,1,1.62,1.82,39.16,39.16,0,0,1,.13,4.72q0,38.82,0,77.63a14,14,0,0,1-.18,1.71,1.06,1.06,0,0,1-1.12.91c-.72,0-1.44,0-2.16,0s-1.7.07-2.56,0c-1.59-.05-1.58-.68-1.76-1.75a4.56,4.56,0,0,1,0-.64Z" transform="translate(106.98 -279.33)" style="fill:#f6f2d9"/><path d="M254.18,323.07V281.45c0-.19,0-.38,0-.57,0-.79.23-1,1-1.13a23.53,23.53,0,0,1,3.94-.13,5.15,5.15,0,0,1,1.56.13,1.17,1.17,0,0,1,1,1,5.61,5.61,0,0,1,0,.58V364.7a5.61,5.61,0,0,1,0,.58,1.31,1.31,0,0,1-1.41,1.31q-2.34,0-4.68,0a1.32,1.32,0,0,1-1.39-1.4V323.07Z" transform="translate(106.98 -279.33)" style="fill:#f6f2d9"/><path d="M148.23,322.8q0,20,0,40a15,15,0,0,1-.29,2.41,2.23,2.23,0,0,1-2.17,1.72,8.93,8.93,0,0,1-2.19-.34c-.64-.16-.86-.71-1-1.3a3.52,3.52,0,0,1,0-.65V281.3c0-1.19.12-1.34,1.29-1.56a7.84,7.84,0,0,1,3.27,0c.75.18.87.38.91,1.14.32,5.24.11,10.48.13,15.72C148.26,305.35,148.23,314.08,148.23,322.8Z" transform="translate(106.98 -279.33)" style="fill:#f6f2d9"/><path d="M-68.85,322.75q0-20.58,0-41.17c0-1.61.36-1.71,1.64-1.92a7,7,0,0,1,3,.12,1.12,1.12,0,0,1,1,1.21c0,.17,0,.34,0,.51v81.91a4.69,4.69,0,0,1-.51,2.35,2.08,2.08,0,0,1-1.66,1.11,4.77,4.77,0,0,1-2.39-.34,1.47,1.47,0,0,1-.92-1.18,14,14,0,0,1-.13-2.5Z" transform="translate(106.98 -279.33)" style="fill:#f6f2d9"/><path d="M233.6,323V281.2c0-1.06.16-1.24,1.24-1.46a7.52,7.52,0,0,1,3.27.06c.78.19.94.45,1,1.26.32,13.56.09,27.11.13,40.67s0,27.07,0,40.61c0,1-.17,1.94-.16,2.93a1.29,1.29,0,0,1-1.34,1.31c-1,0-1.92,0-2.88,0-.73,0-1.15-.72-1.23-1.37,0-.21,0-.43,0-.64Z" transform="translate(106.98 -279.33)" style="fill:#f6f2d9"/><path d="M186.81,323q0,20.85,0,41.68a1.92,1.92,0,0,1-.55,1.57,1.38,1.38,0,0,1-1,.38c-.86,0-1.73,0-2.59,0s-1.2-.5-1.39-1.27a15.58,15.58,0,0,1,0-3.13c-.32-8.33-.09-16.66-.13-25s0-16.72,0-25.08,0-16.68,0-25c0-1.43.15-2.86.15-4.3,0-.55-.19-1.08-.17-1.63a1.35,1.35,0,0,1,1.09-1.41,7.68,7.68,0,0,1,3.69.07,1,1,0,0,1,.84,1.08c0,.19,0,.39,0,.58Z" transform="translate(106.98 -279.33)" style="fill:#f6f2d9"/><path d="M198.19,323.16v41.61c0,.2,0,.39,0,.58a1,1,0,0,1-.68,1,5.52,5.52,0,0,1-4,.08,1,1,0,0,1-.79-1.14,4.13,4.13,0,0,0,0-.5q0-41.07,0-82.15a4.79,4.79,0,0,0-.09-1.13,1.33,1.33,0,0,1,.95-1.67,6.78,6.78,0,0,1,3.89,0,1,1,0,0,1,.72.88,4.68,4.68,0,0,1,0,.65Z" transform="translate(106.98 -279.33)" style="fill:#f6f2d9"/><path d="M-2.06,322.73q0,20.64,0,41.26a3.79,3.79,0,0,1-.36,1.73,2,2,0,0,1-1.76,1.16,5,5,0,0,1-2.11-.34,1.42,1.42,0,0,1-1-1.26,25.21,25.21,0,0,1-.11-3.36V281.56c0-1.36.59-1.94,2-1.94a11.65,11.65,0,0,1,2.36.13c.66.12.88.28,1,.94a5.58,5.58,0,0,1,0,.71Z" transform="translate(106.98 -279.33)" style="fill:#f6f2d9"/><path d="M61.72,323q0,20.44,0,40.9a12.71,12.71,0,0,1-.19,1.63,1,1,0,0,1-1.1,1c-1,.05-1.92,0-2.88,0a1.15,1.15,0,0,1-1-.93,3.72,3.72,0,0,1-.13-1.2V282.94a6.83,6.83,0,0,0-.11-1.35c-.23-1.12.4-1.87,1.7-2a9.68,9.68,0,0,1,2.79.13c.42.1.74.33.77.75s.19,1.07.19,1.63Q61.7,302.58,61.72,323Z" transform="translate(106.98 -279.33)" style="fill:#f6f2d9"/><path d="M-23.22,322.86v-41.4a4.56,4.56,0,0,1,0-.64,1,1,0,0,1,.73-.95,7.16,7.16,0,0,1,3.12-.19c.05,0,.09,0,.14,0,1,0,1.24.32,1.33,1.64,0,.17,0,.34,0,.5v82.29a5.65,5.65,0,0,1-.13,1.42,1.12,1.12,0,0,1-1.1,1q-1.44,0-2.88,0a1,1,0,0,1-1-.84,5,5,0,0,1-.18-1.34Z" transform="translate(106.98 -279.33)" style="fill:#f6f2d9"/><path d="M81.44,323.67v-41a4.91,4.91,0,0,0,0-.86c-.28-1.4.28-2.15,1.73-2.23a10.71,10.71,0,0,1,2.71.15.92.92,0,0,1,.79.89,26,26,0,0,1,.15,2.93q0,40,0,80c0,.68-.14,1.33-.19,2s-.42,1-1.15,1c-.94,0-1.87,0-2.81,0a1.31,1.31,0,0,1-1.18-1.17c0-.21,0-.43,0-.64Z" transform="translate(106.98 -279.33)" style="fill:#f6f2d9"/><path d="M-102,323.14v41.68a2.71,2.71,0,0,1-.05.85,1.37,1.37,0,0,1-1.26.92c-.81,0-1.63,0-2.44,0-.63,0-.84-.25-1-.88a3.44,3.44,0,0,1-.1-1.06q0-41,0-82.07a6.91,6.91,0,0,0-.09-1.5,1.06,1.06,0,0,1,.91-1.31,7.37,7.37,0,0,1,3.27,0,1,1,0,0,1,.79.88,5.15,5.15,0,0,1,0,.79Z" transform="translate(106.98 -279.33)" style="fill:#f6f2d9"/><path d="M-90.44,323q0,20.48,0,41c0,.56-.17,1.08-.18,1.63a.79.79,0,0,1-.17.4,1.75,1.75,0,0,1-1.92.63,1.4,1.4,0,0,1-1-1.31c-.06-1-.16-2-.16-3q0-40.2,0-80.42a4.56,4.56,0,0,1,0-.64,1.67,1.67,0,0,1,2.23-1.55c.9.23,1.12.55,1.21,1.76,0,.21,0,.43,0,.64Z" transform="translate(106.98 -279.33)" style="fill:#f6f2d9"/><path d="M-54,323q0,20.29,0,40.6c0,.65-.22,1.27-.17,1.92a.89.89,0,0,1,0,.14c-.23.71-.94,1.06-1.95.94a1.4,1.4,0,0,1-1.18-1.33c-.19-2.32-.14-4.63-.14-6.95q0-37.33,0-74.66c0-1,.18-1.9.18-2.86s.71-1.17,1.68-1.15a1.62,1.62,0,0,1,.27.08c1.07.24,1,.24,1.22,1.32a11.81,11.81,0,0,1,.11,2.14Q-54,303.08-54,323Z" transform="translate(106.98 -279.33)" style="fill:#f6f2d9"/><path d="M92.52,323.17V281.84a3.62,3.62,0,0,1,0-.57c.06-.57.09-1.18.73-1.44a2.14,2.14,0,0,1,2.18.2,1,1,0,0,1,.39.82c0,.21,0,.43,0,.64q0,41,0,81.94a8.27,8.27,0,0,0,0,1c.23,1.65-.5,2.31-2,2.15-1-.11-1.39-.59-1.4-1.64V323.17Z" transform="translate(106.98 -279.33)" style="fill:#f6f2d9"/><path d="M-38.19,323.31v41.47c0,.16,0,.33,0,.5a1.48,1.48,0,0,1-.07.42c-.23.65-.88,1-1.85.89a1.35,1.35,0,0,1-1.38-1.12,2.39,2.39,0,0,1,0-1.19,2.6,2.6,0,0,0,0-.79V281.56a2.9,2.9,0,0,1,.13-1.13,1.06,1.06,0,0,1,.83-.69,2.82,2.82,0,0,1,1.47,0,1,1,0,0,1,.72.73,6,6,0,0,1,.17,1.34Q-38.19,302.57-38.19,323.31Z" transform="translate(106.98 -279.33)" style="fill:#f6f2d9"/><path d="M172.13,323.18V281.72c0-.14,0-.29,0-.43-.08-1.2.64-1.79,2.08-1.57a1.51,1.51,0,0,1,.62.17c.22.12.42.25.45.52a12,12,0,0,1,.17,1.34q0,41.58,0,83.14a1.67,1.67,0,0,1-.35,1.27,2.06,2.06,0,0,1-2.62,0,1.12,1.12,0,0,1-.34-.77V323.18Z" transform="translate(106.98 -279.33)" style="fill:#f6f2d9"/><path d="M25.44,322.88v41.53a4.47,4.47,0,0,1-.16,1.27,1.11,1.11,0,0,1-1.14.91,3.18,3.18,0,0,1-1.14-.11.93.93,0,0,1-.69-.74,8.21,8.21,0,0,1-.19-1.49q0-14.12,0-28.24,0-26.91,0-53.82c0-.58.14-1.13.18-1.7a.81.81,0,0,1,.52-.65,2.58,2.58,0,0,1,1.95,0,1.07,1.07,0,0,1,.66.95,4.7,4.7,0,0,1,0,.65Z" transform="translate(106.98 -279.33)" style="fill:#f6f2d9"/><path d="M161.76,323.07q0,20.81,0,41.62a2.38,2.38,0,0,1-.12,1.06c-.06.1-.09.22-.16.32-.45.62-1.12.57-1.77.5a1.25,1.25,0,0,1-1.07-.94,3,3,0,0,1-.19-1.2,1.47,1.47,0,0,0,0-.21q0-41.19,0-82.37a5.52,5.52,0,0,1,.09-1.07,1.39,1.39,0,0,1,1.09-1.1,2,2,0,0,1,1.64.29,1,1,0,0,1,.48.84c0,.21,0,.43,0,.64Z" transform="translate(106.98 -279.33)" style="fill:#f6f2d9"/><path d="M-16.45,323c0-13.87,0-27.75,0-41.62,0-1.32.82-2,2.24-1.68a1.11,1.11,0,0,1,1,1,9.6,9.6,0,0,1,.12,1.42q0,40.74,0,81.5c0,.63-.19,1.23-.17,1.85a.19.19,0,0,1,0,.07c-.2.72-.91,1.07-1.93,1a1.34,1.34,0,0,1-1.2-1.3c0-.22,0-.43,0-.65Z" transform="translate(106.98 -279.33)" style="fill:#f6f2d9"/><path d="M120.88,323.1v41.46a3.58,3.58,0,0,1-.14,1.13,1.19,1.19,0,0,1-1,.86,1.69,1.69,0,0,1-1.92-.63,3.89,3.89,0,0,1-.28-1.37,2.9,2.9,0,0,1,0-.51V281.69c0-.16,0-.33,0-.5a1.53,1.53,0,0,1,2-1.51c.45.09,1,.11,1.12.62a2.55,2.55,0,0,1,.19.91c0,.19,0,.38,0,.57Z" transform="translate(106.98 -279.33)" style="fill:#f6f2d9"/><path d="M263.11,323V281.55c0-.14,0-.28,0-.43-.06-1.21.78-1.49,1.8-1.45a3.89,3.89,0,0,1,.56.1.93.93,0,0,1,.81.87,10.9,10.9,0,0,1,.14,2.21q0,40.5,0,81a8.12,8.12,0,0,1-.16,1.63,1.34,1.34,0,0,1-1.3,1.12c-.12,0-.25,0-.36,0-.89.12-1.4-.6-1.5-1.39a5.61,5.61,0,0,1,0-.58Z" transform="translate(106.98 -279.33)" style="fill:#f6f2d9"/><path d="M-70.15,323.11q0,20.55,0,41.11a9.07,9.07,0,0,1-.18,1.48.9.9,0,0,1-.6.76,1.9,1.9,0,0,1-1.84-.16.83.83,0,0,1-.39-.65c0-.65-.17-1.27-.17-1.92q0-40.75,0-81.49a6.9,6.9,0,0,1,.12-1.5,1.35,1.35,0,0,1,1.49-1.11,4.78,4.78,0,0,1,.83.2.84.84,0,0,1,.55.62,5.48,5.48,0,0,1,.18,1.34Q-70.15,302.46-70.15,323.11Z" transform="translate(106.98 -279.33)" style="fill:#f6f2d9"/><path d="M154,322.94V281.75a3.41,3.41,0,0,1,0-.64c.11-.51.15-1,.74-1.3a2.1,2.1,0,0,1,1.92.15.7.7,0,0,1,.34.61c0,.67.17,1.32.17,2q0,31.41,0,62.82c0,6.11,0,12.22,0,18.33,0,.63-.15,1.23-.18,1.85a1,1,0,0,1-.85.95c-1,.24-1.7,0-1.94-.69a6.72,6.72,0,0,1-.2-1.19,3.62,3.62,0,0,1,0-.57Z" transform="translate(106.98 -279.33)" style="fill:#f6f2d9"/><path d="M17.67,322.9V281.72a4.84,4.84,0,0,1,0-.93,1.33,1.33,0,0,1,1.21-1.14,1.59,1.59,0,0,1,1.55.55c.09.11.21.22.2.37a16,16,0,0,0,.16,1.7q0,40.83,0,81.66c0,.6-.21,1.18-.17,1.78a.64.64,0,0,1-.08.2c-.25.58-.76.78-1.73.68a1.09,1.09,0,0,1-1-.94,9,9,0,0,1-.17-1.56Q17.68,343.5,17.67,322.9Z" transform="translate(106.98 -279.33)" style="fill:#f6f2d9"/><path d="M-29.26,323.18v41.39a3.59,3.59,0,0,1-.15,1.13c-.22.72-.81,1-1.75.88a1.3,1.3,0,0,1-1.13-1.28,35.45,35.45,0,0,1-.14-4.72q0-39.06,0-78.12a14.13,14.13,0,0,1,.16-1.84,1.41,1.41,0,0,1,1.48-1,4.07,4.07,0,0,1,.83.22.84.84,0,0,1,.58.66,4.93,4.93,0,0,1,.13,1.21Z" transform="translate(106.98 -279.33)" style="fill:#f6f2d9"/><path d="M42.71,323.1q0-20.7,0-41.39a3.32,3.32,0,0,1,.08-1,1.43,1.43,0,0,1,1.52-1.1,1.39,1.39,0,0,1,1.43,1.53c.31,9.14.08,18.29.12,27.43s0,18.35,0,27.52v27.45c0,.65-.16,1.27-.17,1.92a1.22,1.22,0,0,1-1.12,1.12,1.46,1.46,0,0,1-1.87-1.53c0-.21,0-.43,0-.64Z" transform="translate(106.98 -279.33)" style="fill:#f6f2d9"/><path d="M7.16,322.84q0,20.45,0,40.88c0,.66-.16,1.28-.17,1.93a.92.92,0,0,1-.27.57,1.58,1.58,0,0,1-2.46-.47,1.12,1.12,0,0,1-.12-.41c0-.8-.17-1.56-.17-2.36q0-39.84,0-79.69c0-.89.21-1.75.17-2.64a.8.8,0,0,1,.79-.87,3,3,0,0,1,.84-.13c1,.15,1.31.51,1.37,1.51,0,.21,0,.43,0,.64Z" transform="translate(106.98 -279.33)" style="fill:#f6f2d9"/><path d="M72.22,322.89V281.42c0-.22,0-.43,0-.65a1.08,1.08,0,0,1,.44-.79,1.91,1.91,0,0,1,1.23-.34,1.33,1.33,0,0,1,1.36,1.5c0,3.93-.11,7.86,0,11.79.27,9.24.07,18.49.11,27.73s.12,18.45,0,27.67c-.08,5.6,0,11.2-.09,16.8a1.53,1.53,0,0,1-2.32,1.3c-.61-.29-.59-.94-.71-1.49a3.41,3.41,0,0,1,0-.64Z" transform="translate(106.98 -279.33)" style="fill:#f6f2d9"/><path d="M170.69,323.2v41.69c0,.22,0,.44,0,.65a1,1,0,0,1-.42.8,1.9,1.9,0,0,1-1.73.16,1.28,1.28,0,0,1-.87-1.2,5.61,5.61,0,0,1,0-.58V281.49c0-.12,0-.24,0-.36a1.42,1.42,0,0,1,1.89-1.44c.88.22,1.13.56,1.13,1.54Z" transform="translate(106.98 -279.33)" style="fill:#f6f2d9"/><path d="M70.79,323.11q0,20.89,0,41.77a1.9,1.9,0,0,1-.07.85,1.32,1.32,0,0,1-1.07.85,1.53,1.53,0,0,1-1.57-.49,2.72,2.72,0,0,1-.3-1.22,2.9,2.9,0,0,1,0-.51v-82.8a5.56,5.56,0,0,1,0-.58c.09-1,.63-1.46,1.8-1.3,1,.13,1.22.54,1.22,1.6Z" transform="translate(106.98 -279.33)" style="fill:#f6f2d9"/><path d="M229.14,323V281.58a1.38,1.38,0,0,0,0-.29c-.24-1.46,1.31-2,2.45-1.39a1.1,1.1,0,0,1,.57.87,5.42,5.42,0,0,1,0,.57v83.23a5.36,5.36,0,0,1-.13,1.13,1.05,1.05,0,0,1-.49.68,1.53,1.53,0,0,1-2.4-1.07c0-.24,0-.48,0-.72Z" transform="translate(106.98 -279.33)" style="fill:#f6f2d9"/><path d="M-97.5,323.11v41.76a2.23,2.23,0,0,1-.07.85,1.48,1.48,0,0,1-1.64.87c-.67,0-1-.32-1.18-1a4.39,4.39,0,0,1-.13-1.14V281.35c0-.19,0-.39,0-.58a1,1,0,0,1,.39-.74,1.87,1.87,0,0,1,1.42-.36c.94.16,1.21.55,1.21,1.61Z" transform="translate(106.98 -279.33)" style="fill:#f6f2d9"/><path d="M207.11,323V364.5a4.12,4.12,0,0,1-.13,1.21,1.3,1.3,0,0,1-.22.44,1.73,1.73,0,0,1-2.33,0c-.28-.38-.21-.82-.33-1.23a2.16,2.16,0,0,1,0-.57v-82.8a5.42,5.42,0,0,1,0-.57c.1-1,.64-1.47,1.79-1.31,1,.12,1.23.54,1.23,1.59Z" transform="translate(106.98 -279.33)" style="fill:#f6f2d9"/><path d="M217.76,323q0-20.91,0-41.83c0-.6.1-1.12.66-1.39a1.86,1.86,0,0,1,2,.19c.35.26.29.69.39,1.05a2.28,2.28,0,0,1,0,.64q0,41.26,0,82.52c0,.53-.17,1-.17,1.56,0,.21-.16.34-.3.47a1.76,1.76,0,0,1-1.76.23,1.3,1.3,0,0,1-.81-1.32c0-.16,0-.33,0-.5Z" transform="translate(106.98 -279.33)" style="fill:#f6f2d9"/></svg>